<svg id="visual" viewBox="0 0 900 450" width="900" height="450" xmlns="http://www.w3.org/2000/svg" xmlns:xlink="http://www.w3.org/1999/xlink" version="1.1"><rect x="0" y="0" width="900" height="450" fill="#FFFFFF"></rect><defs><linearGradient id="grad1_0" x1="50%" y1="100%" x2="100%" y2="0%"><stop offset="10%" stop-color="#f8ab27" stop-opacity="1"></stop><stop offset="90%" stop-color="#f8ab27" stop-opacity="1"></stop></linearGradient></defs><defs><linearGradient id="grad1_1" x1="50%" y1="100%" x2="100%" y2="0%"><stop offset="10%" stop-color="#f8ab27" stop-opacity="1"></stop><stop offset="90%" stop-color="#ffd498" stop-opacity="1"></stop></linearGradient></defs><defs><linearGradient id="grad1_2" x1="50%" y1="100%" x2="100%" y2="0%"><stop offset="10%" stop-color="#ffffff" stop-opacity="1"></stop><stop offset="90%" stop-color="#ffd498" stop-opacity="1"></stop></linearGradient></defs><defs><linearGradient id="grad2_0" x1="0%" y1="100%" x2="50%" y2="0%"><stop offset="10%" stop-color="#f8ab27" stop-opacity="1"></stop><stop offset="90%" stop-color="#f8ab27" stop-opacity="1"></stop></linearGradient></defs><defs><linearGradient id="grad2_1" x1="0%" y1="100%" x2="50%" y2="0%"><stop offset="10%" stop-color="#ffd498" stop-opacity="1"></stop><stop offset="90%" stop-color="#f8ab27" stop-opacity="1"></stop></linearGradient></defs><defs><linearGradient id="grad2_2" x1="0%" y1="100%" x2="50%" y2="0%"><stop offset="10%" stop-color="#ffd498" stop-opacity="1"></stop><stop offset="90%" stop-color="#ffffff" stop-opacity="1"></stop></linearGradient></defs><g transform="translate(900, 450)"><path d="M-247.5 0C-244.6 -33 -241.8 -66 -228.7 -94.7C-215.5 -123.4 -192.1 -147.8 -167.6 -167.6C-143 -187.4 -117.3 -202.7 -89.2 -215.3C-61 -227.8 -30.5 -237.7 0 -247.5L0 0Z" fill="#ffe9cb"></path><path d="M-165 0C-163.1 -22 -161.2 -44 -152.4 -63.1C-143.7 -82.3 -128.1 -98.5 -111.7 -111.7C-95.3 -124.9 -78.2 -135.1 -59.4 -143.5C-40.7 -151.9 -20.3 -158.4 0 -165L0 0Z" fill="#ffbf64"></path><path d="M-82.5 0C-81.5 -11 -80.6 -22 -76.2 -31.6C-71.8 -41.1 -64 -49.3 -55.9 -55.9C-47.7 -62.5 -39.1 -67.6 -29.7 -71.8C-20.3 -75.9 -10.2 -79.2 0 -82.5L0 0Z" fill="#f8ab27"></path></g><g transform="translate(0, 0)"><path d="M247.5 0C233.1 28 218.7 55.9 208.8 86.5C198.9 117 193.4 150.1 175 175C156.7 199.9 125.5 216.6 94.1 227.3C62.8 238 31.4 242.7 0 247.5L0 0Z" fill="#ffe9cb"></path><path d="M165 0C155.4 18.6 145.8 37.3 139.2 57.7C132.6 78 128.9 100.1 116.7 116.7C104.4 133.3 83.6 144.4 62.8 151.5C41.9 158.7 20.9 161.8 0 165L0 0Z" fill="#ffbf64"></path><path d="M82.5 0C77.7 9.3 72.9 18.6 69.6 28.8C66.3 39 64.5 50 58.3 58.3C52.2 66.6 41.8 72.2 31.4 75.8C20.9 79.3 10.5 80.9 0 82.5L0 0Z" fill="#f8ab27"></path></g></svg>