<svg id="visual" viewBox="0 0 540 960" width="540" height="960" xmlns="http://www.w3.org/2000/svg" xmlns:xlink="http://www.w3.org/1999/xlink" version="1.1"><rect x="0" y="0" width="540" height="960" fill="#FFFFFF"></rect><defs><linearGradient id="grad1_0" x1="0%" y1="100%" x2="100%" y2="0%"><stop offset="30%" stop-color="#f8ab27" stop-opacity="1"></stop><stop offset="70%" stop-color="#f8ab27" stop-opacity="1"></stop></linearGradient></defs><defs><linearGradient id="grad1_1" x1="0%" y1="100%" x2="100%" y2="0%"><stop offset="30%" stop-color="#f8ab27" stop-opacity="1"></stop><stop offset="70%" stop-color="#ffd498" stop-opacity="1"></stop></linearGradient></defs><defs><linearGradient id="grad1_2" x1="0%" y1="100%" x2="100%" y2="0%"><stop offset="30%" stop-color="#ffffff" stop-opacity="1"></stop><stop offset="70%" stop-color="#ffd498" stop-opacity="1"></stop></linearGradient></defs><defs><linearGradient id="grad2_0" x1="0%" y1="100%" x2="100%" y2="0%"><stop offset="30%" stop-color="#f8ab27" stop-opacity="1"></stop><stop offset="70%" stop-color="#f8ab27" stop-opacity="1"></stop></linearGradient></defs><defs><linearGradient id="grad2_1" x1="0%" y1="100%" x2="100%" y2="0%"><stop offset="30%" stop-color="#ffd498" stop-opacity="1"></stop><stop offset="70%" stop-color="#f8ab27" stop-opacity="1"></stop></linearGradient></defs><defs><linearGradient id="grad2_2" x1="0%" y1="100%" x2="100%" y2="0%"><stop offset="30%" stop-color="#ffd498" stop-opacity="1"></stop><stop offset="70%" stop-color="#ffffff" stop-opacity="1"></stop></linearGradient></defs><g transform="translate(540, 960)"><path d="M-297 0C-280.5 -33.7 -264.1 -67.4 -252.2 -104.5C-240.4 -141.5 -233.1 -182 -210 -210C-186.9 -238 -147.9 -253.6 -110.2 -266.1C-72.6 -278.5 -36.3 -287.8 0 -297L0 0Z" fill="#ffe9cb"></path><path d="M-198 0C-187 -22.5 -176 -44.9 -168.1 -69.6C-160.2 -94.4 -155.4 -121.3 -140 -140C-124.6 -158.7 -98.6 -169.1 -73.5 -177.4C-48.4 -185.7 -24.2 -191.8 0 -198L0 0Z" fill="#ffbf64"></path><path d="M-99 0C-93.5 -11.2 -88 -22.5 -84.1 -34.8C-80.1 -47.2 -77.7 -60.7 -70 -70C-62.3 -79.3 -49.3 -84.5 -36.7 -88.7C-24.2 -92.8 -12.1 -95.9 0 -99L0 0Z" fill="#f8ab27"></path></g><g transform="translate(0, 0)"><path d="M297 0C287.8 37.1 278.6 74.1 265.2 109.8C251.7 145.5 234.1 179.8 208.6 208.6C183.1 237.4 149.7 260.6 113.7 274.4C77.6 288.2 38.8 292.6 0 297L0 0Z" fill="#ffe9cb"></path><path d="M198 0C191.9 24.7 185.7 49.4 176.8 73.2C167.8 97 156.1 119.9 139.1 139.1C122.1 158.2 99.8 173.7 75.8 182.9C51.7 192.1 25.9 195.1 0 198L0 0Z" fill="#ffbf64"></path><path d="M99 0C95.9 12.4 92.9 24.7 88.4 36.6C83.9 48.5 78 59.9 69.5 69.5C61 79.1 49.9 86.9 37.9 91.5C25.9 96.1 12.9 97.5 0 99L0 0Z" fill="#f8ab27"></path></g></svg>