<svg id="visual" viewBox="0 0 675 900" width="675" height="900" xmlns="http://www.w3.org/2000/svg" xmlns:xlink="http://www.w3.org/1999/xlink" version="1.1"><rect x="0" y="0" width="675" height="900" fill="#FFFFFF"></rect><defs><linearGradient id="grad1_0" x1="0%" y1="100%" x2="100%" y2="0%"><stop offset="30%" stop-color="#f8ab27" stop-opacity="1"></stop><stop offset="70%" stop-color="#f8ab27" stop-opacity="1"></stop></linearGradient></defs><defs><linearGradient id="grad1_1" x1="0%" y1="100%" x2="100%" y2="0%"><stop offset="30%" stop-color="#f8ab27" stop-opacity="1"></stop><stop offset="70%" stop-color="#ffd498" stop-opacity="1"></stop></linearGradient></defs><defs><linearGradient id="grad1_2" x1="0%" y1="100%" x2="100%" y2="0%"><stop offset="30%" stop-color="#ffffff" stop-opacity="1"></stop><stop offset="70%" stop-color="#ffd498" stop-opacity="1"></stop></linearGradient></defs><defs><linearGradient id="grad2_0" x1="0%" y1="100%" x2="100%" y2="0%"><stop offset="30%" stop-color="#f8ab27" stop-opacity="1"></stop><stop offset="70%" stop-color="#f8ab27" stop-opacity="1"></stop></linearGradient></defs><defs><linearGradient id="grad2_1" x1="0%" y1="100%" x2="100%" y2="0%"><stop offset="30%" stop-color="#ffd498" stop-opacity="1"></stop><stop offset="70%" stop-color="#f8ab27" stop-opacity="1"></stop></linearGradient></defs><defs><linearGradient id="grad2_2" x1="0%" y1="100%" x2="100%" y2="0%"><stop offset="30%" stop-color="#ffd498" stop-opacity="1"></stop><stop offset="70%" stop-color="#ffffff" stop-opacity="1"></stop></linearGradient></defs><g transform="translate(675, 900)"><path d="M-309.4 0C-306.6 -42 -303.8 -84.1 -285.8 -118.4C-267.8 -152.7 -234.6 -179.4 -203.6 -203.6C-172.7 -227.9 -144.1 -249.8 -110.6 -267C-77 -284.2 -38.5 -296.8 0 -309.4L0 0Z" fill="#ffe9cb"></path><path d="M-206.2 0C-204.4 -28 -202.6 -56 -190.6 -78.9C-178.5 -101.8 -156.4 -119.6 -135.8 -135.8C-115.2 -151.9 -96.1 -166.5 -73.7 -178C-51.4 -189.5 -25.7 -197.9 0 -206.2L0 0Z" fill="#ffbf64"></path><path d="M-103.1 0C-102.2 -14 -101.3 -28 -95.3 -39.5C-89.3 -50.9 -78.2 -59.8 -67.9 -67.9C-57.6 -76 -48 -83.3 -36.9 -89C-25.7 -94.7 -12.8 -98.9 0 -103.1L0 0Z" fill="#f8ab27"></path></g><g transform="translate(0, 0)"><path d="M309.4 0C287.9 33.6 266.3 67.3 254.1 105.2C241.8 143.2 238.8 185.5 217.8 217.8C196.8 250 157.7 272.2 118.4 285.8C79.1 299.4 39.5 304.4 0 309.4L0 0Z" fill="#ffe9cb"></path><path d="M206.3 0C191.9 22.4 177.6 44.8 169.4 70.2C161.2 95.5 159.2 123.7 145.2 145.2C131.2 166.7 105.1 181.5 78.9 190.6C52.7 199.6 26.4 202.9 0 206.3L0 0Z" fill="#ffbf64"></path><path d="M103.1 0C96 11.2 88.8 22.4 84.7 35.1C80.6 47.7 79.6 61.8 72.6 72.6C65.6 83.3 52.6 90.7 39.5 95.3C26.4 99.8 13.2 101.5 0 103.1L0 0Z" fill="#f8ab27"></path></g></svg>